<svg width="148" height="148" viewBox="0 0 148 148" fill="none" xmlns="http://www.w3.org/2000/svg">
<circle cx="74" cy="74" r="74" fill="#F8F8F8"/>
<g clip-path="url(#clip0_2850_11637)">
<path d="M124.426 63.8365C124.393 63.8365 124.36 63.8263 124.333 63.8073L79.3367 32.4705C79.1998 32.3756 79.037 32.3249 78.8704 32.3252C78.7038 32.3255 78.5413 32.3767 78.4047 32.4721L33.7324 63.807C33.697 63.8318 33.6533 63.8415 33.6108 63.8341C33.5683 63.8266 33.5305 63.8026 33.5057 63.7672C33.4809 63.7319 33.4712 63.6882 33.4786 63.6457C33.4861 63.6031 33.5101 63.5653 33.5455 63.5406L78.2178 32.2057C78.4091 32.0722 78.6366 32.0004 78.8699 32C79.1032 31.9996 79.331 32.0706 79.5227 32.2035L124.519 63.5402C124.547 63.56 124.569 63.5884 124.58 63.6212C124.591 63.654 124.592 63.6895 124.581 63.7225C124.571 63.7556 124.55 63.7845 124.522 63.805C124.494 63.8255 124.461 63.8365 124.426 63.8365Z" fill="#3F3D56"/>
<path d="M36.285 64.9473L78.9146 33.3535L121.868 67.1953L81.1111 91.3564L58.9838 86.3127L36.285 64.9473Z" fill="#E6E6E6"/>
<path d="M124.101 63.5111H124.068L105.39 71.4867L79.8346 82.3991C79.7348 82.4411 79.6276 82.463 79.5193 82.4635C79.411 82.4641 79.3036 82.4433 79.2033 82.4023L52.8376 71.4639L33.7007 63.5241L33.6715 63.5111H33.6389C33.337 63.5114 33.0475 63.6315 32.8339 63.8451C32.6204 64.0586 32.5003 64.3481 32.5 64.65V114.111C32.5003 114.413 32.6204 114.703 32.8339 114.916C33.0475 115.13 33.337 115.25 33.6389 115.25H124.101C124.403 115.25 124.692 115.13 124.906 114.916C125.119 114.703 125.239 114.413 125.24 114.111V64.65C125.239 64.3481 125.119 64.0586 124.906 63.8451C124.692 63.6315 124.403 63.5114 124.101 63.5111ZM124.914 114.111C124.914 114.327 124.828 114.534 124.676 114.686C124.523 114.839 124.316 114.925 124.101 114.925H33.6389C33.4232 114.925 33.2163 114.839 33.0638 114.686C32.9112 114.534 32.8255 114.327 32.8254 114.111V64.65C32.8257 64.4396 32.9073 64.2375 33.0531 64.0859C33.199 63.9343 33.3978 63.8449 33.608 63.8365L52.8376 71.8154L79.0781 82.7033C79.3621 82.8189 79.6804 82.8171 79.9632 82.6984L105.39 71.8398L124.133 63.8365C124.343 63.8456 124.541 63.9352 124.687 64.0867C124.832 64.2382 124.914 64.44 124.914 64.65V114.111Z" fill="#3F3D56"/>
</g>
<defs>
<clipPath id="clip0_2850_11637">
<rect width="92.7396" height="83.25" fill="white" transform="translate(32.5 32)"/>
</clipPath>
</defs>
</svg>
